<svg xmlns="http://www.w3.org/2000/svg" width="100.202" height="96.652">
    <defs>
        <linearGradient id="a" x1=".5" x2=".5" y2="1" gradientUnits="objectBoundingBox">
            <stop offset="0" stop-color="#f88717"/>
            <stop offset="1" stop-color="#fb0"/>
        </linearGradient>
    </defs>
    <path d="m96.229 61.579 2.252.686a1.334 1.334 0 1 0 .777-2.552l-4.033-1.228c-.1-.345-.206-.734-.32-1.164-1.37-5.165-4.195-15.8-22.271-18.854v-2.793c0-16-10.108-29.02-22.532-29.02S27.57 19.672 27.57 35.674v2.794C9.494 41.525 6.669 52.156 5.3 57.321c-.114.43-.218.819-.32 1.164L.947 59.713a1.334 1.334 0 1 0 .777 2.552l2.252-.685C2.463 66.544.4 74.715.053 76.6a1.83 1.83 0 0 0-.043.52S2.4 97.28 2.4 97.306a6.926 6.926 0 0 0 6.7 6h82a6.927 6.927 0 0 0 6.7-6c0-.026 2.394-20.185 2.394-20.185a2.764 2.764 0 0 0-.043-.52c-.351-1.885-2.41-10.057-3.922-15.022ZM76.2 41.967c12.8 3.476 14.928 11.5 16.131 16.038.2.773.382 1.44.587 2.007 1.354 3.743 3.564 12.51 4.351 15.852a13.734 13.734 0 0 0-7.308 4.853c-3.178 3.847-5 4.878-13.761 4.916V41.967ZM34.978 37.7v-2.026C34.978 23.725 41.762 14 50.1 14s15.123 9.721 15.123 21.669V37.7Zm26.686 2.583v45.351H38.54V40.285ZM26.676 56.056l3.857 2.579a1.327 1.327 0 0 0 .74.225 1.538 1.538 0 0 0 .743-.225l3.857-2.579v29.578h-9.2V56.056Zm9.2-8.189h-.894v-7.493c.3-.014.593-.027.894-.038Zm37.656 4.98-4.6 3.074-4.6-3.074v-2.312h9.2v2.312Zm-9.2-4.98v-7.531c.3.011.6.024.894.038v7.494Zm0 8.189 3.858 2.579a1.185 1.185 0 0 0 .742.226 1.325 1.325 0 0 0 .74-.225l3.857-2.579v29.577h-9.2V56.056Zm8.3-14.88c.3.053.6.108.894.166v6.526h-.894Zm-42.4-5.5c0-14.531 8.911-26.352 19.865-26.352s19.87 11.819 19.87 26.35v12.194h-2.074V35.674c0-13.419-7.981-24.337-17.791-24.337S32.311 22.255 32.311 35.674v12.194h-2.073V35.674Zm-3.562 5.668c.292-.058.591-.113.894-.166v6.692h-.894Zm9.2 9.193v2.312l-4.6 3.074-4.6-3.074v-2.314ZM7.29 60.011c.2-.566.382-1.234.587-2.007 1.2-4.537 3.334-12.562 16.131-16.038v43.666c-8.76-.038-10.583-1.069-13.761-4.916a13.734 13.734 0 0 0-7.307-4.853c.787-3.342 2.997-12.108 4.35-15.852Zm87.877 36.862a4.244 4.244 0 0 1-4.082 3.766H9.125a4.245 4.245 0 0 1-4.089-3.766l-2.163-18.26a11.537 11.537 0 0 1 5.318 3.8c4 4.841 6.9 5.886 16.334 5.886h51.154c9.434 0 12.334-1.045 16.334-5.886a11.471 11.471 0 0 1 5.319-3.813Z" transform="translate(-.001 -6.654)" style="fill:url(#a)"/>
</svg>
