<svg xmlns="http://www.w3.org/2000/svg" xmlns:xlink="http://www.w3.org/1999/xlink" width="98.175" height="98.174" viewBox="0 0 98.175 98.174"><defs><style>.a{fill:url(#a);}</style><linearGradient id="a" x1="0.5" x2="0.5" y2="1" gradientUnits="objectBoundingBox"><stop offset="0" stop-color="#ff8a00"/><stop offset="1" stop-color="#fb0"/></linearGradient></defs><g transform="translate(0 4.318)"><path class="a" d="M96.538,111.7H94.776L90.419,57.955a14.671,14.671,0,0,0-4.982-9.893L58.784,24.742a14.769,14.769,0,0,0-19.393,0L12.738,48.062a14.671,14.671,0,0,0-4.982,9.894L3.4,111.7H1.636a1.636,1.636,0,1,0,0,3.272h94.9a1.636,1.636,0,1,0,0-3.272Zm-89.854,0L11.018,58.22a11.411,11.411,0,0,1,3.875-7.69L41.546,27.2a11.487,11.487,0,0,1,15.083,0l26.656,23.32a11.411,11.411,0,0,1,3.875,7.69L91.49,111.7Z" transform="translate(0 -21.113)"/></g><g transform="translate(14.724 30.901)"><path class="a" d="M140.678,209.822l-8.44-37.976a26.511,26.511,0,0,0-51.759,0l-8.448,37.976a1.636,1.636,0,0,0,1.6,1.991h65.45a1.636,1.636,0,0,0,1.6-1.991Zm-35.96-1.281H75.67l8-35.984a23.182,23.182,0,0,1,21.052-18.112Zm3.272,0V193.795a42.182,42.182,0,0,0,10.238,14.746Zm10.932-3.909a38.926,38.926,0,0,1-9.383-16.326,18.621,18.621,0,0,0,10.6,5.323A18.878,18.878,0,0,0,118.923,204.631Zm4.805,3.909-.19-.38a15.672,15.672,0,0,1,.581-15.14,1.636,1.636,0,0,0-1.4-2.479,15.312,15.312,0,0,1-13.267-7.7l-1.46-2.551V154.438a23.177,23.177,0,0,1,21.052,18.118l8,35.984Z" transform="translate(-71.992 -151.085)"/></g><g transform="translate(81.812)"><path class="a" d="M414.726,6.545a4.909,4.909,0,0,1-4.909-4.909,1.636,1.636,0,1,0-3.272,0,4.909,4.909,0,0,1-4.909,4.909,1.636,1.636,0,1,0,0,3.272,4.909,4.909,0,0,1,4.909,4.909,1.636,1.636,0,1,0,3.272,0,4.909,4.909,0,0,1,4.909-4.909,1.636,1.636,0,1,0,0-3.272Zm-6.545,3.323a8.165,8.165,0,0,0-1.687-1.687,8.163,8.163,0,0,0,1.687-1.687,8.164,8.164,0,0,0,1.687,1.687A8.159,8.159,0,0,0,408.181,9.868Z" transform="translate(-400)"/></g><g transform="translate(1.636 9.817)"><path class="a" d="M22.726,54.545a4.909,4.909,0,0,1-4.909-4.909,1.636,1.636,0,1,0-3.272,0,4.909,4.909,0,0,1-4.909,4.909,1.636,1.636,0,0,0,0,3.272,4.909,4.909,0,0,1,4.909,4.909,1.636,1.636,0,1,0,3.272,0,4.909,4.909,0,0,1,4.909-4.909,1.636,1.636,0,1,0,0-3.272Zm-6.545,3.323a8.166,8.166,0,0,0-1.687-1.687,8.167,8.167,0,0,0,1.687-1.687,8.167,8.167,0,0,0,1.687,1.687A8.161,8.161,0,0,0,16.181,57.868Z" transform="translate(-8 -48)"/></g></svg>