<svg height="57.622" viewBox="0 0 57.622 57.622" width="57.622" xmlns="http://www.w3.org/2000/svg">
    <defs>
        <style>.a{fill:none;}.b{fill:#fff;}</style>
    </defs>
    <path class="a" d="M0,0H57.622V57.622H0Z" />
    <path class="b"
        d="M27.97,20.482a2.451,2.451,0,0,0,2.452-2.435v-4.87h4.9a2.435,2.435,0,1,0,0-4.87h-4.9V3.435a2.452,2.452,0,0,0-4.9,0v4.87h-4.9a2.435,2.435,0,1,0,0,4.87h4.9v4.87A2.451,2.451,0,0,0,27.97,20.482ZM15.711,42.4a4.871,4.871,0,1,0,4.9,4.87A4.88,4.88,0,0,0,15.711,42.4Zm24.518,0a4.871,4.871,0,1,0,4.9,4.87A4.88,4.88,0,0,0,40.228,42.4ZM18.408,30.223H36.673a4.886,4.886,0,0,0,4.291-2.508l8.287-14.928a2.438,2.438,0,0,0-4.266-2.362L36.673,25.352H19.462L9.679,4.823A2.435,2.435,0,0,0,7.473,3.435H3.452a2.435,2.435,0,1,0,0,4.87H5.9L14.73,26.789l-3.31,5.942a4.88,4.88,0,0,0,4.291,7.233H42.68a2.435,2.435,0,1,0,0-4.87H15.711Z"
        transform="translate(1.161 1.161)" />
</svg>