<svg xmlns="http://www.w3.org/2000/svg" width="30.279" height="14.993" viewBox="0 0 30.279 14.993">
    <g transform="translate(0 0)">
        <g transform="translate(0 0)">
            <path
                d="M30.133,132.707c-2.239-4.284-8.276-7.107-14.993-7.107S2.385,128.423.146,132.61a.73.73,0,0,0,0,.876c2.239,4.284,8.276,7.107,14.993,7.107s12.754-2.823,14.993-7.01A.73.73,0,0,0,30.133,132.707Zm-14.993,5.939c-5.744,0-10.9-2.142-12.949-5.549,2.045-3.408,7.2-5.549,12.949-5.549s10.9,2.142,12.949,5.549C26.044,136.407,20.883,138.646,15.139,138.646Z"
                transform="translate(0 -125.6)" />
        </g>
    </g>
    <g transform="translate(8.324 0.322)">
        <g transform="translate(0 0)">
            <path
                d="M149.165,131.356a.986.986,0,1,0-1.655,1.071,4.554,4.554,0,0,1,.876,2.726,4.771,4.771,0,1,1-9.541,0,5.159,5.159,0,0,1,.779-2.629.986.986,0,1,0-1.655-1.071,6.734,6.734,0,1,0,11.2-.1Z"
                transform="translate(-136.8 -130.9)" />
        </g>
    </g>
</svg>