<svg xmlns="http://www.w3.org/2000/svg" width="102.203" height="71.363"
    viewBox="0 0 102.203 71.363">
    <defs>
        <style>.a{fill:#fb0;}</style>
    </defs>
    <path class="a"
        d="M101.554,79.8a3.43,3.43,0,0,0-2.781-1.422H96.64l-.046-13.495a3.43,3.43,0,0,0-3.43-3.418H82.522L85.3,48.984a3.429,3.429,0,0,0-3.348-4.173H28.668A3.429,3.429,0,0,0,25.32,47.5l-.65,2.923h-7.22a3.43,3.43,0,0,0,0,6.859h5.7l-1.592,7.164H9.039a3.429,3.429,0,1,0,0,6.859H20.03l-1.592,7.163H3.43a3.43,3.43,0,1,0,0,6.859H16.915L14.1,97.979a3.429,3.429,0,0,0,3.347,4.173h2.2c-.015.257-.024.516-.024.777a13.244,13.244,0,1,0,26.488,0c0-.261-.01-.52-.025-.777H67.326c-.014.257-.024.516-.024.777a13.244,13.244,0,1,0,26.488,0c0-.279-.012-.555-.029-.83a3.428,3.428,0,0,0,2.659-2.3l5.609-16.912A3.43,3.43,0,0,0,101.554,79.8ZM81.949,68.326h7.8l.034,10.054H78.764L81.027,68.2A3.418,3.418,0,0,0,81.949,68.326ZM32.874,109.315a6.386,6.386,0,1,1,6.385-6.387A6.393,6.393,0,0,1,32.874,109.315Zm0-19.631a13.234,13.234,0,0,0-10.812,5.609h-.337L31.419,51.67H77.674L67.98,95.293h-24.3A13.233,13.233,0,0,0,32.874,89.683Zm47.672,19.631a6.386,6.386,0,1,1,6.386-6.387A6.393,6.393,0,0,1,80.546,109.315ZM90.894,94.676A13.223,13.223,0,0,0,76.08,90.46l1.16-5.221H94.023Z"
        transform="translate(0 -44.811)" />
</svg>