<svg xmlns="http://www.w3.org/2000/svg" width="40.444" height="41.265" viewBox="0 0 40.444 41.265">
    <g id="Group_3093" data-name="Group 3093" transform="translate(-606.967 -124.368)">
        <path id="filter_1_" data-name="filter (1)"
            d="M34.788,0H1.565A1.561,1.561,0,0,0,.174.847,1.583,1.583,0,0,0,.3,2.494L12.468,19.641l.013.017a3.476,3.476,0,0,1,.683,2.063V35.7a1.554,1.554,0,0,0,1.554,1.564,1.6,1.6,0,0,0,.613-.123l6.839-2.608a1.482,1.482,0,0,0,1.019-1.462V21.721a3.478,3.478,0,0,1,.682-2.063l.013-.017L36.056,2.494A1.581,1.581,0,0,0,36.179.848,1.56,1.56,0,0,0,34.788,0Zm0,0"
            transform="translate(609.012 126.368)" fill="none" stroke="#000" stroke-width="4" />
    </g>
</svg>
