<svg xmlns="http://www.w3.org/2000/svg" xmlns:xlink="http://www.w3.org/1999/xlink" width="96.45" height="90.424" viewBox="0 0 96.45 90.424">
    <defs>
        <linearGradient id="linear-gradient" x1="0.5" x2="0.5" y2="1" gradientUnits="objectBoundingBox">
            <stop offset="0" stop-color="#ff8a00"/>
            <stop offset="1" stop-color="#fb0"/>
        </linearGradient>
    </defs>
    <g id="Group_3071" data-name="Group 3071" transform="translate(-143.845 -274.583)">
        <g id="sofa" transform="translate(143.845 274.583)">
            <path id="Path_2173" data-name="Path 2173" d="M95.055,212.957a5.764,5.764,0,0,0-3.4-2.262l-2.446-9.541a5.271,5.271,0,0,0-4.894-4.19H25.1a1.629,1.629,0,0,0,0,3.229H84.312a2.351,2.351,0,0,1,2.183,1.869l2.593,10.111-4.581,16.4a4.952,4.952,0,0,0-4.4-3.023H51.785a4.7,4.7,0,0,0-3.576,1.73,4.7,4.7,0,0,0-3.576-1.73H16.347a4.953,4.953,0,0,0-4.4,3.023l-4.581-16.4,2.593-10.111a2.351,2.351,0,0,1,2.182-1.869h6.39a1.629,1.629,0,0,0,0-3.229h-6.39a5.271,5.271,0,0,0-4.894,4.19L4.8,210.7a5.763,5.763,0,0,0-3.4,2.262A7.412,7.412,0,0,0,.08,218.412l3.255,22.337c.82,5.624,4.737,9.841,9.57,10.535v8.443a1.524,1.524,0,0,0,1.413,1.615h5.316a1.421,1.421,0,0,0,1.3-.973l3.4-8.984H55.358a1.629,1.629,0,0,0,0-3.229H14.318c-4.078,0-7.525-3.338-8.2-7.937L2.868,217.881a3.855,3.855,0,0,1,.684-2.837A3.073,3.073,0,0,1,4.9,213.993l6.52,23.337a1.446,1.446,0,0,0,1.346,1.124H83.68a1.446,1.446,0,0,0,1.346-1.124l6.52-23.337a3.073,3.073,0,0,1,1.353,1.052,3.855,3.855,0,0,1,.684,2.837l-3.255,22.337c-.67,4.6-4.117,7.937-8.2,7.937H61.986a1.629,1.629,0,0,0,0,3.229h9.171l3.4,8.984a1.421,1.421,0,0,0,1.3.973h5.316a1.524,1.524,0,0,0,1.413-1.615v-8.353c5.267-.239,9.657-4.633,10.531-10.626l3.255-22.337A7.412,7.412,0,0,0,95.055,212.957ZM15.731,251.384h5.523l-2.547,6.728H15.731ZM46.8,235.224H14.183v-3.976a2.336,2.336,0,0,1,2.163-2.472H44.633a2.336,2.336,0,0,1,2.163,2.472Zm35.471,0H49.622v-3.976a2.336,2.336,0,0,1,2.163-2.472H80.1a2.336,2.336,0,0,1,2.163,2.472Zm-2.508,22.888H76.783l-2.547-6.728h5.523Z" transform="translate(0 -170.918)" fill="url(#linear-gradient)"/>
            <path id="Path_2174" data-name="Path 2174" d="M146.529,49.579H191.09a1.615,1.615,0,0,0,1.615-1.615v-8.1a1.615,1.615,0,1,0-3.229,0v6.49H148.143V19.226h41.332v13.13a1.615,1.615,0,1,0,3.229,0V17.612A1.615,1.615,0,0,0,191.09,16H146.529a1.615,1.615,0,0,0-1.615,1.615V47.964A1.615,1.615,0,0,0,146.529,49.579Z" transform="translate(-120.599 -15.997)" fill="url(#linear-gradient)"/>
            <path id="Path_2175" data-name="Path 2175" d="M176.552,46.029a1.615,1.615,0,0,0-1.615,1.615V65.065a1.615,1.615,0,0,0,1.615,1.615h31.635a1.615,1.615,0,0,0,1.615-1.615V47.644a1.615,1.615,0,0,0-1.615-1.615Zm30.02,17.422H178.166V61.666l5.431-6,5.228,4.247a1.614,1.614,0,0,0,1.9.1l4.187-2.724,11.661,4.784v1.381Zm0-4.872-11.219-4.6a1.616,1.616,0,0,0-1.493.14l-3.911,2.545-5.5-4.471a1.615,1.615,0,0,0-2.215.17l-4.063,4.492V49.258h28.406v9.321Z" transform="translate(-144.159 -39.564)" fill="url(#linear-gradient)"/>
            <circle id="Ellipse_1551" data-name="Ellipse 1551" cx="1.611" cy="1.611" r="1.611" transform="translate(23.608 41.667)" fill="url(#linear-gradient)"/>
            <circle id="Ellipse_1552" data-name="Ellipse 1552" cx="1.611" cy="1.611" r="1.611" transform="translate(38.807 41.667)" fill="url(#linear-gradient)"/>
            <circle id="Ellipse_1553" data-name="Ellipse 1553" cx="1.611" cy="1.611" r="1.611" transform="translate(31.207 51.131)" fill="url(#linear-gradient)"/>
            <circle id="Ellipse_1554" data-name="Ellipse 1554" cx="1.611" cy="1.611" r="1.611" transform="translate(46.406 51.132)" fill="url(#linear-gradient)"/>
            <circle id="Ellipse_1555" data-name="Ellipse 1555" cx="1.611" cy="1.611" r="1.611" transform="translate(54.389 41.666)" fill="url(#linear-gradient)"/>
            <circle id="Ellipse_1556" data-name="Ellipse 1556" cx="1.611" cy="1.611" r="1.611" transform="translate(61.973 51.133)" fill="url(#linear-gradient)"/>
            <circle id="Ellipse_1557" data-name="Ellipse 1557" cx="1.611" cy="1.611" r="1.611" transform="translate(69.59 41.667)" fill="url(#linear-gradient)"/>
        </g>
    </g>
</svg>