<svg xmlns="http://www.w3.org/2000/svg" xmlns:xlink="http://www.w3.org/1999/xlink" width="95.082"
    height="95.082" viewBox="0 0 95.082 95.082">
    <defs>
        <style>.a{fill:url(#a);}</style>
        <linearGradient id="a" x1="0.5" x2="0.5" y2="1" gradientUnits="objectBoundingBox">
            <stop offset="0" stop-color="#ff8a00" />
            <stop offset="1" stop-color="#fb0" />
        </linearGradient>
    </defs>
    <path class="a" d="M46.127,333.452a2.049,2.049,0,1,0-1.754,3.106,2.048,2.048,0,0,0,1.754-3.1Z"
        transform="translate(-33.651 -270.979)" />
    <path class="a"
        d="M94.538,33.971a1.871,1.871,0,0,0-1.313-.544,28.981,28.981,0,0,1-9.167-1.475,6.511,6.511,0,0,0-4.741-7.215,4.193,4.193,0,0,0,.165-1.153,5.569,5.569,0,0,0-10.3-2.947A28.768,28.768,0,0,1,64.255,4.457v-2.6A1.858,1.858,0,0,0,62.4,0H32.684a1.858,1.858,0,0,0-1.857,1.857v2.6A28.768,28.768,0,0,1,25.9,20.638a5.569,5.569,0,0,0-10.3,2.947,4.834,4.834,0,0,0,.143,1.16,6.51,6.51,0,0,0-4.719,7.208,28.981,28.981,0,0,1-9.167,1.475A1.858,1.858,0,0,0,0,35.284,56.7,56.7,0,0,0,4.251,56.843a1.857,1.857,0,1,0,3.436-1.411A52.9,52.9,0,0,1,3.744,37.088a32.452,32.452,0,0,0,8.862-1.753,6.523,6.523,0,0,0,2.552,1.757,6.495,6.495,0,0,0,3.85,8.593,7.427,7.427,0,0,0,9.331,9.957,14.428,14.428,0,0,0,10.066,5.8,9.283,9.283,0,0,0,18.277-.013,14.425,14.425,0,0,0,9.992-5.811,7.425,7.425,0,0,0,9.4-9.931,6.495,6.495,0,0,0,3.85-8.593,6.52,6.52,0,0,0,2.552-1.757,32.453,32.453,0,0,0,8.862,1.753A53.414,53.414,0,0,1,64.546,81.41L47.541,91.087,30.536,81.41A52.916,52.916,0,0,1,15.976,69.217a1.856,1.856,0,1,0-2.854,2.373A56.649,56.649,0,0,0,28.7,84.638l17.923,10.2a1.858,1.858,0,0,0,1.839,0l17.923-10.2a56.773,56.773,0,0,0,28.7-49.354,1.871,1.871,0,0,0-.544-1.313Zm-14.19-3.549a2.786,2.786,0,0,1-1.833,3.229,2.758,2.758,0,0,1-.89.147,2.785,2.785,0,0,1-.8-5.452,2.719,2.719,0,0,1,.8-.119,2.79,2.79,0,0,1,2.722,2.2Zm-8.294-6.838a1.86,1.86,0,1,1,.956,1.623c-.09-.088-.181-.175-.271-.265q-.233-.233-.46-.471A1.845,1.845,0,0,1,72.054,23.585ZM21.171,21.728A1.856,1.856,0,0,1,22.8,24.471q-.227.238-.46.472c-.09.09-.181.177-.272.266a1.857,1.857,0,1,1-.9-3.48Zm-6.437,8.695a2.79,2.79,0,0,1,2.722-2.2,2.72,2.72,0,0,1,.8.119,2.785,2.785,0,0,1-.8,5.452,2.758,2.758,0,0,1-.89-.147,2.786,2.786,0,0,1-1.833-3.229Zm6.437,6.347a2.786,2.786,0,1,1-2.786,2.786A2.789,2.789,0,0,1,21.171,36.77ZM22.1,48.655a3.714,3.714,0,1,1,3.714,3.714A3.718,3.718,0,0,1,22.1,48.655ZM47.541,65.369A5.571,5.571,0,1,1,53.112,59.8,5.578,5.578,0,0,1,47.541,65.369Zm9.04-7.684A9.283,9.283,0,0,0,38.5,57.7a10.721,10.721,0,0,1-7.092-4.164,7.421,7.421,0,0,0-4-12.137,6.494,6.494,0,0,0-3.933-7.923,6.5,6.5,0,0,0,.123-4.611,22.04,22.04,0,0,0,2.146-2.1,32.526,32.526,0,0,0,8.117-15.626h5.329a1.857,1.857,0,0,0,0-3.714H34.407c.089-.983.135-3.714.135-3.714h26s.046,2.731.135,3.714H55.9a1.857,1.857,0,1,0,0,3.714h5.329a32.527,32.527,0,0,0,8.117,15.626,22.038,22.038,0,0,0,2.146,2.1,6.5,6.5,0,0,0,.123,4.611A6.494,6.494,0,0,0,67.68,41.4a7.42,7.42,0,0,0-4.053,12.079A10.724,10.724,0,0,1,56.581,57.685Zm12.688-5.316a3.714,3.714,0,1,1,3.714-3.714A3.718,3.718,0,0,1,69.269,52.369Zm4.643-10.028A2.786,2.786,0,1,1,76.7,39.556,2.789,2.789,0,0,1,73.911,42.341Z"
        transform="translate(0 0)" />
    <circle class="a" cx="2.478" cy="2.478" r="2.478" transform="translate(45.063 7.839)" />
</svg>