<svg xmlns="http://www.w3.org/2000/svg" xmlns:xlink="http://www.w3.org/1999/xlink" width="79.59" height="115.25" viewBox="0 0 79.59 115.25">
    <defs>
        <linearGradient id="linear-gradient" x1="0.5" x2="0.5" y2="1" gradientUnits="objectBoundingBox">
            <stop offset="0" stop-color="#ff8d00"/>
            <stop offset="1" stop-color="#ffb91f"/>
        </linearGradient>
    </defs>
    <g id="perfume" transform="translate(-92.33 -19)">
        <path id="Path_6643" data-name="Path 6643" d="M157.544,57.972H147.132V50.591a1.7,1.7,0,0,0-1.7-1.7h-3.05v-4.2h1.2a1.7,1.7,0,0,0,1.649-1.279l3.561-13.9A8.039,8.039,0,0,0,141.142,19H123.108a8.039,8.039,0,0,0-7.65,10.509l3.562,13.9a1.7,1.7,0,0,0,1.649,1.279h1.2v4.2H118.82a1.7,1.7,0,0,0-1.7,1.7v7.381H106.706a14.376,14.376,0,0,0-13.91,18l12.4,47.527A14.38,14.38,0,0,0,119.1,134.25h26.042a14.379,14.379,0,0,0,13.909-10.744l12.4-47.53a14.376,14.376,0,0,0-13.91-18Zm-38.8-29.361c-.01-.038-.021-.076-.033-.113a4.635,4.635,0,0,1,4.4-6.093h18.034a4.635,4.635,0,0,1,4.4,6.093c-.012.037-.024.075-.033.113l-3.247,12.674H121.989Zm20.234,16.078v4.2h-13.7v-4.2Zm-18.455,7.6h23.206v5.679H120.522Zm47.64,22.824-12.4,47.526a10.975,10.975,0,0,1-10.616,8.2H119.1a10.974,10.974,0,0,1-10.616-8.2l-12.4-47.529a10.972,10.972,0,0,1,10.617-13.741h50.838a10.972,10.972,0,0,1,10.617,13.741Z" fill="url(#linear-gradient)"/>
        <path id="Path_6644" data-name="Path 6644" d="M188.627,229.282H154.75a10.147,10.147,0,0,0-9.818,12.709l8.261,31.669a10.15,10.15,0,0,0,9.819,7.586h17.353a10.15,10.15,0,0,0,9.819-7.586l8.262-31.669a10.147,10.147,0,0,0-9.818-12.709Zm6.525,11.85L186.89,272.8a6.745,6.745,0,0,1-6.525,5.041H163.012a6.745,6.745,0,0,1-6.525-5.039l-8.262-31.671a6.744,6.744,0,0,1,6.525-8.446h33.877a6.744,6.744,0,0,1,6.525,8.446Z" transform="translate(-39.563 -159.154)" fill="url(#linear-gradient)"/>
    </g>
</svg>
