<svg xmlns="http://www.w3.org/2000/svg" width="62.199" height="62.199"><path d="M0 0h62.2v62.2H0z" fill="none"/><path d="M50.355 33.639a20.2 20.2 0 00.181-2.54 20.2 20.2 0 00-.181-2.54l5.468-4.276a1.307 1.307 0 00.311-1.659l-5.183-8.967a1.294 1.294 0 00-1.14-.648 1.211 1.211 0 00-.441.078l-6.456 2.596a18.935 18.935 0 00-4.38-2.54l-.985-6.868a1.264 1.264 0 00-1.266-1.092H25.914a1.264 1.264 0 00-1.27 1.088l-.985 6.868a19.911 19.911 0 00-4.38 2.54l-6.451-2.596a1.467 1.467 0 00-.466-.078 1.284 1.284 0 00-1.114.648l-5.184 8.972a1.278 1.278 0 00.311 1.658l5.469 4.276a20.553 20.553 0 00-.181 2.54 20.553 20.553 0 00.181 2.54l-5.469 4.276a1.307 1.307 0 00-.311 1.659l5.183 8.967a1.294 1.294 0 001.14.648 1.211 1.211 0 00.441-.078l6.453-2.592a18.935 18.935 0 004.38 2.54l.985 6.868a1.264 1.264 0 001.27 1.088h10.367a1.264 1.264 0 001.27-1.088l.985-6.868a19.911 19.911 0 004.38-2.54l6.453 2.592a1.467 1.467 0 00.466.078 1.284 1.284 0 001.114-.648l5.183-8.967a1.307 1.307 0 00-.311-1.659zm-5.131-4.432a13.846 13.846 0 01.13 1.892c0 .544-.052 1.114-.13 1.892l-.363 2.929 2.307 1.814 2.8 2.177-1.814 3.136-3.291-1.322-2.7-1.088-2.332 1.762a15.178 15.178 0 01-3.24 1.892l-2.747 1.114-.415 2.929-.518 3.5h-3.626l-.492-3.5-.415-2.929-2.747-1.114a14.7 14.7 0 01-3.188-1.84l-2.358-1.814-2.747 1.114-3.291 1.322-1.815-3.136 2.8-2.177 2.307-1.814-.363-2.929c-.078-.8-.13-1.4-.13-1.918s.052-1.114.13-1.892l.363-2.929-2.307-1.814-2.8-2.181 1.814-3.136 3.291 1.322 2.7 1.088 2.332-1.762a15.178 15.178 0 013.24-1.892l2.747-1.114.415-2.929.518-3.5h3.6l.492 3.5.415 2.929 2.747 1.114a14.7 14.7 0 013.188 1.84l2.358 1.814 2.747-1.114 3.291-1.322 1.814 3.136-2.773 2.2-2.307 1.826.363 2.929zm-14.125-8.474a10.366 10.366 0 1010.367 10.366 10.364 10.364 0 00-10.367-10.366zm0 15.55a5.183 5.183 0 115.183-5.183 5.2 5.2 0 01-5.183 5.183z"/></svg>