<svg xmlns="http://www.w3.org/2000/svg" width="76.577" height="87.629" viewBox="0 0 76.577 87.629"><defs><style>.a{fill:#fff;}</style></defs><g transform="translate(0)"><path class="a" d="M67.294,36.7,40.587,52.118V32.22l-.852.426a5.09,5.09,0,0,1-1.779.333,5.143,5.143,0,0,1-1.757-.324l-.143-.019-.462-.214-.272-.137V52.118L8.613,36.7V18.836L3.35,16.188V38.22A2.627,2.627,0,0,0,4.667,40.5L36.638,58.96a2.641,2.641,0,0,0,2.634,0L71.24,40.5a2.621,2.621,0,0,0,1.317-2.277V16.182l-5.263,2.637V36.7Z" transform="translate(0.338 28.317)" style="fill:#fff;" /><path class="a" d="M19.05,4.767l-1.083-.355a2.667,2.667,0,0,0-1.644,0l-1.081.355c.7,1.617,1.342,3.237,1.9,4.777C17.7,8,18.348,6.384,19.05,4.767Z" transform="translate(21.146 7.494)" style="fill:#fff;" /><path class="a" d="M78.581,26.056c0-.017.006-.033.006-.052,0-.055-.027-.107-.033-.162a2.734,2.734,0,0,0-.1-.517c-.028-.082-.058-.159-.091-.236a2.557,2.557,0,0,0-.228-.418c-.052-.071-.093-.143-.151-.209a2.529,2.529,0,0,0-.357-.349,2.318,2.318,0,0,0-.176-.151c-.017-.008-.025-.025-.041-.036a2.551,2.551,0,0,0-.61-.294c-.006,0-.011-.005-.017-.008l-6.616-2.175c-.305.338-.613.66-.9.951-3.025,3.025-8.129,5.544-12.864,7.417L62.029,32.1v12.98l-7.81,3.938V35.46l-8.943-4.727c2.31-.621,16.552-4.625,22.118-10.2,1.628-1.622,3.77-4.139,3.63-7.241s-2.3-4.906-4.037-6.361c-.5-.415-1.026-.855-1.534-1.356s-.94-1.034-1.358-1.534C62.664,2.34,60.714,0,57.45,0c-2.981,0-5.4,2.073-6.955,3.633-5.58,5.58-9.581,19.846-10.2,22.134-.616-2.28-4.62-16.555-10.2-22.134C28.538,2.073,26.12,0,23.142,0,19.878,0,17.926,2.337,16.5,4.042c-.415.5-.852,1.028-1.356,1.532s-1.037.94-1.532,1.358C11.868,8.39,9.706,10.2,9.569,13.3s2,5.618,3.63,7.241c5.569,5.574,19.827,9.578,22.126,10.2L26.376,35.46V49.02l-7.81-3.938V32.1l5.64-2.291c-4.741-1.875-9.85-4.394-12.87-7.417-.289-.289-.594-.613-.9-.951L3.821,23.619c-.005,0-.011.006-.016.006a2.779,2.779,0,0,0-.61.3c-.016.008-.025.025-.041.036-.066.047-.118.1-.179.151a2.822,2.822,0,0,0-.355.346,1.963,1.963,0,0,0-.151.212,2.676,2.676,0,0,0-.228.418,2.513,2.513,0,0,0-.091.239,2.327,2.327,0,0,0-.1.517A1.544,1.544,0,0,0,2.012,26c0,.016.006.033.006.052s-.008.044-.008.066V38.078a2.628,2.628,0,0,0,1.446,2.348L39.111,58.381c.038.019.077.011.118.027a2.376,2.376,0,0,0,2.134,0c.044-.017.08-.008.118-.027L77.14,40.427a2.637,2.637,0,0,0,1.444-2.348V26.122A.271.271,0,0,0,78.581,26.056ZM53.292,6.429c5.137-5.137,6.251-1.185,9.38,1.941s7.073,4.24,1.936,9.377-20.542,9.226-20.542,9.226S48.153,11.566,53.292,6.429ZM17.931,8.368c3.127-3.124,4.24-7.076,9.377-1.939s9.226,20.545,9.226,20.545S21.127,22.888,15.99,17.751,14.807,11.5,17.931,8.368Z" transform="translate(-2.009)" style="fill:#fff;" /></g></svg>