<svg xmlns="http://www.w3.org/2000/svg" width="128.498" height="128.498" viewBox="0 0 128.498 128.498">
  <g id="Group_3129" data-name="Group 3129" transform="translate(-50 -365.751)">
    <g id="Group_3128" data-name="Group 3128" transform="translate(-2.751)">
      <ellipse id="Ellipse_1604" data-name="Ellipse 1604" cx="11.126" cy="11.951" rx="11.126" ry="11.951" transform="translate(128.68 402.084)" fill="#fb0"/>
      <ellipse id="Ellipse_1605" data-name="Ellipse 1605" cx="11.126" cy="11.951" rx="11.126" ry="11.951" transform="translate(83.067 402.084)" fill="#fb0"/>
      <path id="Path_6580" data-name="Path 6580" d="M66.185,2A64.249,64.249,0,1,0,130.5,66.249,64.218,64.218,0,0,0,66.185,2Zm.064,115.648a51.4,51.4,0,1,1,51.4-51.4A51.385,51.385,0,0,1,66.249,117.648Zm0-38.549A35.219,35.219,0,0,0,36.373,95.675a4.8,4.8,0,0,0,8.16,5.076,25.561,25.561,0,0,1,43.432,0A4.782,4.782,0,0,0,92.077,103a5.338,5.338,0,0,0,2.57-.707,4.8,4.8,0,0,0,1.542-6.618A35.261,35.261,0,0,0,66.249,79.1Z" transform="translate(50.751 363.751)" fill="#fb0"/>
    </g>
  </g>
</svg>
