<svg xmlns="http://www.w3.org/2000/svg" width="141.953" height="141.953" viewBox="0 0 141.953 141.953">
  <g id="Group_3130" data-name="Group 3130" transform="translate(-50 -359.024)">
    <path id="Path_6582" data-name="Path 6582" d="M72.976,83.623a38.957,38.957,0,0,0-33.714,19.519,3.593,3.593,0,0,0,3.123,5.323h61.182a3.593,3.593,0,0,0,3.123-5.323A38.957,38.957,0,0,0,72.976,83.623ZM47.07,69.215l3.762-3.762,3.762,3.762a5.32,5.32,0,0,0,7.523-7.524l-3.762-3.762,3.762-3.762a5.32,5.32,0,0,0-7.523-7.523l-3.762,3.762L47.07,46.644a5.32,5.32,0,0,0-7.523,7.523l3.762,3.762-3.762,3.762a5.32,5.32,0,0,0,7.523,7.523ZM72.905,2a70.976,70.976,0,1,0,71.047,70.976A70.9,70.9,0,0,0,72.905,2Zm.071,127.758a56.781,56.781,0,1,1,56.781-56.781A56.765,56.765,0,0,1,72.976,129.758ZM98.883,46.644l-3.762,3.762-3.762-3.762a5.32,5.32,0,0,0-7.523,7.523L87.6,57.929l-3.762,3.762a5.32,5.32,0,0,0,7.523,7.523l3.762-3.762,3.762,3.762a5.32,5.32,0,1,0,7.524-7.523l-3.762-3.762,3.762-3.762a5.32,5.32,0,1,0-7.524-7.523Z" transform="translate(48 357.024)" fill="#fb0"/>
  </g>
</svg>
